<svg width="40" height="40" viewBox="0 0 40 40" fill="none" xmlns="http://www.w3.org/2000/svg">
<path fill-rule="evenodd" clip-rule="evenodd" d="M35.0001 19.1895H13.3335V34.0228C13.3335 34.5751 13.7812 35.0228 14.3335 35.0228H34.0001C34.5524 35.0228 35.0001 34.5751 35.0001 34.0228V19.1895ZM31.6668 22.5228H16.6668V31.6895H31.6668V22.5228Z" fill="#E0E4E6"/>
<path d="M31.682 25.7441H28.3486V28.2441H31.682V25.7441Z" fill="#E0E4E6"/>
<path d="M31.6717 17.0963C31.6717 17.0963 31.6191 16.6871 31.3019 16.4279C30.9846 16.1688 30.24 16.3331 30.24 16.3331L13.4678 19.6847H31.6717V17.0963Z" fill="#E0E4E6" fill-opacity="0.1"/>
<path d="M31.6718 17.0963H31.9218V17.0803L31.9197 17.0644L31.6718 17.0963ZM13.4679 19.6847L13.4189 19.4395L13.4679 19.9347V19.6847ZM30.2401 16.3331L30.2891 16.5783L30.294 16.5772L30.2401 16.3331ZM31.6718 19.6847V19.9347H31.9218V19.6847H31.6718ZM31.1438 16.6215C31.2583 16.7151 31.3298 16.8402 31.3731 16.9505C31.3943 17.0047 31.4074 17.0521 31.4151 17.085C31.4189 17.1014 31.4213 17.1139 31.4227 17.1215C31.4233 17.1253 31.4237 17.1278 31.4239 17.129C31.4239 17.1292 31.424 17.1295 31.4239 17.129C31.4239 17.1289 31.4238 17.1281 31.6718 17.0963C31.9197 17.0644 31.9197 17.0645 31.9197 17.0644C31.9197 17.0645 31.9197 17.0642 31.9197 17.0644C31.9197 17.0641 31.9195 17.0631 31.9195 17.0628C31.9194 17.0621 31.9193 17.0614 31.9192 17.0605C31.919 17.0588 31.9187 17.0567 31.9183 17.0542C31.9175 17.0493 31.9165 17.0428 31.9151 17.0349C31.9123 17.0191 31.9081 16.9976 31.9021 16.9715C31.89 16.9197 31.8702 16.8486 31.8386 16.7681C31.7762 16.609 31.6629 16.4 31.4601 16.2343L31.1438 16.6215ZM13.5169 19.9299L30.2891 16.5783L30.1911 16.088L13.4189 19.4395L13.5169 19.9299ZM30.2401 16.3331C30.294 16.5772 30.294 16.5772 30.294 16.5772C30.2935 16.5773 30.2941 16.5772 30.294 16.5772C30.2948 16.5771 30.2968 16.5766 30.299 16.5762C30.3033 16.5753 30.3102 16.5739 30.3194 16.5722C30.3377 16.5687 30.365 16.5638 30.3989 16.5587C30.4673 16.5483 30.5606 16.537 30.6617 16.5332C30.7637 16.5292 30.8668 16.5331 30.957 16.5497C31.0496 16.5667 31.1097 16.5937 31.1438 16.6215L31.4601 16.2343C31.3356 16.1326 31.1837 16.083 31.0474 16.0579C30.9088 16.0324 30.7662 16.0288 30.6424 16.0335C30.5177 16.0383 30.405 16.052 30.3238 16.0643C30.283 16.0705 30.2497 16.0765 30.226 16.081C30.2142 16.0832 30.2048 16.0851 30.198 16.0865C30.1947 16.0872 30.192 16.0877 30.19 16.0882C30.189 16.0884 30.1882 16.0886 30.1876 16.0887C30.1879 16.0886 30.1872 16.0888 30.1876 16.0887C30.1875 16.0887 30.1865 16.0889 30.1864 16.0889C30.1864 16.0889 30.1862 16.089 30.2401 16.3331ZM31.4218 17.0963V19.6847H31.9218V17.0963H31.4218ZM31.6718 19.4347H13.4679V19.9347H31.6718V19.4347Z" fill="#E0E4E6"/>
<path d="M24.4711 13.8323C23.6833 12.3824 22.5437 11.096 21.0793 10.1118C16.9952 7.36705 11.6883 7.84861 8.16864 10.9662L5 9.40572C9.57745 4.48173 17.1818 3.47625 22.9386 7.34526C24.2069 8.19759 25.2899 9.2223 26.1776 10.3673L24.4711 13.8323Z" fill="#E0E4E6"/>
<path d="M26.1499 14.4609L19.2769 13.8349L29.4709 8.41113L26.1499 14.4609Z" fill="#E0E4E6"/>
</svg>
