<svg width="430" height="430" viewBox="0 0 430 430" fill="none" xmlns="http://www.w3.org/2000/svg">
<path d="M342.38 135.55L366.94 140.77C371.365 141.711 375.235 144.371 377.699 148.164C380.163 151.958 381.019 156.575 380.08 161L377.68 172.26L371 203.53L342.73 336.53C342.27 338.723 341.381 340.803 340.115 342.652C338.848 344.5 337.229 346.079 335.35 347.3C333.471 348.52 331.369 349.357 329.165 349.762C326.962 350.167 324.7 350.132 322.51 349.66L69.4698 295.87C67.2419 295.394 65.1309 294.48 63.2598 293.18" fill="#4F3FA0"/>
<path d="M342.38 197.44L371.03 203.53L377.68 172.25L342.38 164.75" fill="#3A3347"/>
<path d="M192.18 259.9C191.488 259.898 190.812 259.691 190.238 259.306C189.664 258.92 189.217 258.373 188.954 257.733C188.69 257.093 188.622 256.39 188.758 255.711C188.895 255.033 189.229 254.41 189.719 253.922C190.208 253.434 190.832 253.101 191.511 252.967C192.189 252.833 192.893 252.903 193.532 253.168C194.171 253.433 194.717 253.882 195.101 254.457C195.485 255.032 195.69 255.709 195.69 256.4C195.691 256.863 195.601 257.321 195.423 257.748C195.246 258.176 194.986 258.563 194.657 258.889C194.329 259.215 193.939 259.472 193.51 259.645C193.081 259.819 192.622 259.906 192.16 259.9H192.18Z" fill="#121331"/>
<path d="M274.86 293.51L272.93 302.76L314.33 311.56L318.13 293.51" fill="#EBE6EF"/>
<path d="M325.33 79.96H66.5998C57.1833 79.96 49.5498 87.5935 49.5498 97.01V276.47C49.5498 285.886 57.1833 293.52 66.5998 293.52H325.33C334.746 293.52 342.38 285.886 342.38 276.47V97.01C342.38 87.5935 334.746 79.96 325.33 79.96Z" fill="#9E2A9C"/>
<g style="mix-blend-mode:multiply" opacity="0.5">
<path d="M64.2498 276.47V97.0001C64.2498 94.7634 64.6912 92.5487 65.5486 90.4829C66.4061 88.4171 67.6628 86.5408 69.2467 84.9615C70.8306 83.3823 72.7105 82.1311 74.7788 81.2797C76.8471 80.4284 79.0631 79.9935 81.2998 80.0001H66.5998C64.3631 79.9935 62.1471 80.4284 60.0788 81.2797C58.0105 82.1311 56.1305 83.3823 54.5467 84.9615C52.9628 86.5408 51.7061 88.4171 50.8486 90.4829C49.9912 92.5487 49.5498 94.7634 49.5498 97.0001V276.47C49.563 280.975 51.3583 285.291 54.5436 288.476C57.7288 291.662 62.0452 293.457 66.5498 293.47H81.2998C76.7865 293.47 72.4573 291.681 69.2613 288.494C66.0652 285.307 64.263 280.983 64.2498 276.47Z" fill="#4BB3FD"/>
</g>
<path d="M237.39 113C236.867 112.997 236.346 112.93 235.84 112.8C235.039 112.598 234.286 112.24 233.623 111.747C232.961 111.253 232.402 110.634 231.98 109.924C231.557 109.215 231.278 108.429 231.16 107.611C231.042 106.794 231.086 105.961 231.29 105.16C231.585 104.02 232.195 102.985 233.049 102.173C233.904 101.361 234.968 100.806 236.123 100.569C237.277 100.332 238.475 100.424 239.58 100.834C240.685 101.244 241.653 101.956 242.373 102.888C243.094 103.82 243.538 104.936 243.657 106.109C243.775 107.281 243.562 108.463 243.042 109.521C242.521 110.578 241.715 111.469 240.714 112.091C239.713 112.713 238.558 113.042 237.38 113.04L237.39 113Z" fill="#EBE6EF"/>
<path d="M259.89 113.06C259.366 113.062 258.845 112.995 258.34 112.86C257.539 112.658 256.786 112.3 256.123 111.807C255.461 111.313 254.902 110.694 254.48 109.984C254.057 109.274 253.778 108.488 253.66 107.671C253.542 106.853 253.586 106.02 253.79 105.22C254.085 104.079 254.695 103.044 255.549 102.233C256.404 101.421 257.468 100.865 258.623 100.628C259.777 100.392 260.975 100.484 262.08 100.893C263.185 101.303 264.153 102.015 264.873 102.948C265.594 103.88 266.038 104.996 266.157 106.168C266.275 107.341 266.062 108.523 265.542 109.581C265.021 110.638 264.215 111.528 263.214 112.151C262.213 112.773 261.058 113.102 259.88 113.1L259.89 113.06Z" fill="#EBE6EF"/>
<path d="M282.89 113.24C282.367 113.241 281.847 113.177 281.34 113.05C279.723 112.638 278.336 111.6 277.483 110.166C276.629 108.732 276.38 107.018 276.79 105.4C277.085 104.259 277.695 103.224 278.549 102.413C279.404 101.601 280.469 101.045 281.623 100.809C282.777 100.572 283.975 100.664 285.08 101.074C286.185 101.484 287.153 102.195 287.873 103.128C288.594 104.06 289.038 105.176 289.157 106.349C289.275 107.521 289.062 108.703 288.542 109.761C288.021 110.818 287.215 111.709 286.214 112.331C285.213 112.953 284.058 113.282 282.88 113.28L282.89 113.24Z" fill="#EBE6EF"/>
<path d="M306.39 113.11C305.866 113.112 305.345 113.045 304.84 112.91C304.039 112.708 303.285 112.35 302.623 111.857C301.961 111.363 301.402 110.744 300.98 110.034C300.557 109.325 300.278 108.538 300.16 107.721C300.042 106.904 300.086 106.071 300.29 105.27C300.585 104.129 301.195 103.094 302.049 102.283C302.904 101.471 303.968 100.915 305.123 100.679C306.277 100.442 307.475 100.534 308.58 100.944C309.685 101.354 310.652 102.065 311.373 102.998C312.094 103.93 312.538 105.046 312.657 106.219C312.775 107.391 312.562 108.573 312.042 109.631C311.521 110.688 310.715 111.579 309.714 112.201C308.713 112.823 307.558 113.152 306.38 113.15L306.39 113.11Z" fill="#EBE6EF"/>
<path d="M79.5698 259.91C78.6416 259.91 77.7513 259.542 77.0949 258.885C76.4386 258.229 76.0698 257.339 76.0698 256.41C76.0698 255.482 76.4386 254.592 77.0949 253.935C77.7513 253.279 78.6416 252.91 79.5698 252.91L107.08 252.8C108.008 252.8 108.898 253.169 109.555 253.825C110.211 254.482 110.58 255.372 110.58 256.3C110.58 257.229 110.211 258.119 109.555 258.775C108.898 259.432 108.008 259.8 107.08 259.8L79.5698 259.91Z" fill="#EBE6EF"/>
<path d="M157 259.84H130.47C129.541 259.84 128.651 259.472 127.995 258.815C127.338 258.159 126.97 257.269 126.97 256.34C126.97 255.412 127.338 254.522 127.995 253.865C128.651 253.209 129.541 252.84 130.47 252.84H157C157.928 252.84 158.818 253.209 159.475 253.865C160.131 254.522 160.5 255.412 160.5 256.34C160.5 257.269 160.131 258.159 159.475 258.815C158.818 259.472 157.928 259.84 157 259.84Z" fill="#EBE6EF"/>
<path d="M188.07 259.76C187.142 259.76 186.251 259.391 185.595 258.735C184.939 258.079 184.57 257.188 184.57 256.26C184.57 255.332 184.939 254.442 185.595 253.785C186.251 253.129 187.142 252.76 188.07 252.76L215.58 252.64C216.508 252.64 217.398 253.009 218.055 253.665C218.711 254.322 219.08 255.212 219.08 256.14C219.08 257.068 218.711 257.959 218.055 258.615C217.398 259.271 216.508 259.64 215.58 259.64L188.07 259.76Z" fill="#EBE6EF"/>
<path d="M265.49 259.68H238.96C238.032 259.68 237.141 259.311 236.485 258.655C235.829 257.999 235.46 257.108 235.46 256.18C235.46 255.252 235.829 254.362 236.485 253.705C237.141 253.049 238.032 252.68 238.96 252.68H265.49C266.418 252.68 267.308 253.049 267.965 253.705C268.621 254.362 268.99 255.252 268.99 256.18C268.99 257.108 268.621 257.999 267.965 258.655C267.308 259.311 266.418 259.68 265.49 259.68Z" fill="#EBE6EF"/>
<path d="M79.5698 229.76C78.6416 229.76 77.7513 229.391 77.0949 228.735C76.4386 228.079 76.0698 227.188 76.0698 226.26C76.0698 225.332 76.4386 224.442 77.0949 223.785C77.7513 223.129 78.6416 222.76 79.5698 222.76L107.08 222.64C108.008 222.64 108.898 223.009 109.555 223.665C110.211 224.322 110.58 225.212 110.58 226.14C110.58 227.068 110.211 227.959 109.555 228.615C108.898 229.271 108.008 229.64 107.08 229.64L79.5698 229.76Z" fill="#EBE6EF"/>
<path d="M214.49 229.87H187.96C187.032 229.87 186.141 229.501 185.485 228.845C184.829 228.189 184.46 227.298 184.46 226.37C184.46 225.442 184.829 224.552 185.485 223.895C186.141 223.239 187.032 222.87 187.96 222.87H214.49C215.418 222.87 216.308 223.239 216.965 223.895C217.621 224.552 217.99 225.442 217.99 226.37C217.99 227.298 217.621 228.189 216.965 228.845C216.308 229.501 215.418 229.87 214.49 229.87Z" fill="#EBE6EF"/>
<path d="M83.8799 107.05L84.0499 150.45H126.38L126.29 106.95L83.8799 107.05Z" fill="#EBE6EF"/>
<path d="M192.18 259.9C191.488 259.898 190.812 259.691 190.238 259.306C189.664 258.92 189.217 258.373 188.954 257.733C188.69 257.093 188.622 256.39 188.758 255.711C188.895 255.033 189.229 254.41 189.719 253.922C190.208 253.434 190.832 253.101 191.511 252.967C192.189 252.833 192.893 252.903 193.532 253.168C194.171 253.433 194.717 253.882 195.101 254.457C195.485 255.032 195.69 255.709 195.69 256.4C195.691 256.863 195.601 257.321 195.423 257.748C195.246 258.176 194.986 258.563 194.657 258.889C194.329 259.215 193.939 259.472 193.51 259.645C193.081 259.819 192.622 259.906 192.16 259.9H192.18Z" fill="#121331"/>
<path d="M367.66 137.35L345.88 132.72V97.0002C345.875 91.5516 343.708 86.3277 339.855 82.475C336.002 78.6223 330.778 76.4555 325.33 76.4502H66.5998C61.1512 76.4555 55.9273 78.6223 52.0746 82.475C48.2219 86.3277 46.0551 91.5516 46.0498 97.0002V276.47C46.054 281.1 47.6201 285.593 50.4946 289.223C53.3691 292.852 57.384 295.406 61.8898 296.47C63.9821 297.826 66.303 298.792 68.7398 299.32L321.81 353.11C323.23 353.409 324.678 353.559 326.13 353.56C330.83 353.548 335.383 351.926 339.032 348.964C342.68 346.001 345.203 341.877 346.18 337.28L374.45 204.28L383.5 161.74C384.627 156.406 383.592 150.843 380.622 146.27C377.653 141.698 372.991 138.49 367.66 137.35ZM66.5998 290C65.7098 289.997 64.8222 289.907 63.9498 289.73H63.7798C60.7461 289.081 58.0265 287.412 56.0741 285.001C54.1216 282.59 53.0543 279.583 53.0498 276.48V97.0002C53.0577 93.4099 54.4882 89.969 57.0279 87.4312C59.5676 84.8934 63.0095 83.4655 66.5998 83.4602H325.33C328.92 83.4655 332.362 84.8934 334.902 87.4312C337.441 89.969 338.872 93.4099 338.88 97.0002V135.52V164.72V197.4V276.45C338.875 280.042 337.445 283.486 334.905 286.026C332.365 288.566 328.922 289.995 325.33 290H66.5998ZM277.7 297H313.81L311.62 307.39L277.06 300.04L277.7 297ZM339.33 335.79C338.962 337.531 338.253 339.183 337.246 340.65C336.238 342.117 334.951 343.37 333.459 344.339C331.966 345.308 330.297 345.973 328.547 346.296C326.797 346.618 325 346.593 323.26 346.22L91.6798 297H270.55L269.5 302C269.31 302.907 269.488 303.852 269.994 304.628C270.5 305.404 271.293 305.948 272.2 306.14L313.6 314.94C314.05 315.037 314.516 315.043 314.969 314.959C315.422 314.875 315.854 314.702 316.239 314.45C316.625 314.198 316.957 313.872 317.217 313.491C317.476 313.11 317.657 312.682 317.75 312.23L321 297H325.36C330.808 296.995 336.032 294.828 339.885 290.975C343.738 287.123 345.905 281.899 345.91 276.45V201.75L366.91 206.21L339.33 335.79ZM368.33 199.36L345.87 194.59V169.07L373.53 175L368.33 199.36ZM376.64 160.24L375 168.1L345.89 161.92V139.92L366.22 144.24C369.72 144.994 372.781 147.101 374.734 150.102C376.688 153.103 377.377 156.754 376.65 160.26L376.64 160.24Z" fill="#121331"/>
<path d="M79.5698 259.91C78.6416 259.91 77.7513 259.542 77.0949 258.885C76.4386 258.229 76.0698 257.339 76.0698 256.41C76.0698 255.482 76.4386 254.592 77.0949 253.935C77.7513 253.279 78.6416 252.91 79.5698 252.91L107.08 252.8C108.008 252.8 108.898 253.169 109.555 253.825C110.211 254.482 110.58 255.372 110.58 256.3C110.58 257.229 110.211 258.119 109.555 258.775C108.898 259.432 108.008 259.8 107.08 259.8L79.5698 259.91Z" fill="#EBE6EF"/>
<path d="M157 259.84H130.47C129.541 259.84 128.651 259.472 127.995 258.815C127.338 258.159 126.97 257.269 126.97 256.34C126.97 255.412 127.338 254.522 127.995 253.865C128.651 253.209 129.541 252.84 130.47 252.84H157C157.928 252.84 158.818 253.209 159.475 253.865C160.131 254.522 160.5 255.412 160.5 256.34C160.5 257.269 160.131 258.159 159.475 258.815C158.818 259.472 157.928 259.84 157 259.84Z" fill="#EBE6EF"/>
<path d="M188.07 259.76C187.142 259.76 186.251 259.391 185.595 258.735C184.939 258.079 184.57 257.188 184.57 256.26C184.57 255.332 184.939 254.442 185.595 253.785C186.251 253.129 187.142 252.76 188.07 252.76L215.58 252.64C216.508 252.64 217.398 253.009 218.055 253.665C218.711 254.322 219.08 255.212 219.08 256.14C219.08 257.068 218.711 257.959 218.055 258.615C217.398 259.271 216.508 259.64 215.58 259.64L188.07 259.76Z" fill="#EBE6EF"/>
<path d="M265.49 259.68H238.96C238.032 259.68 237.141 259.311 236.485 258.655C235.829 257.999 235.46 257.108 235.46 256.18C235.46 255.252 235.829 254.362 236.485 253.705C237.141 253.049 238.032 252.68 238.96 252.68H265.49C266.418 252.68 267.308 253.049 267.965 253.705C268.621 254.362 268.99 255.252 268.99 256.18C268.99 257.108 268.621 257.999 267.965 258.655C267.308 259.311 266.418 259.68 265.49 259.68Z" fill="#EBE6EF"/>
<path d="M79.5698 229.76C78.6416 229.76 77.7513 229.391 77.0949 228.735C76.4386 228.079 76.0698 227.188 76.0698 226.26C76.0698 225.332 76.4386 224.442 77.0949 223.785C77.7513 223.129 78.6416 222.76 79.5698 222.76L107.08 222.64C108.008 222.64 108.898 223.009 109.555 223.665C110.211 224.322 110.58 225.212 110.58 226.14C110.58 227.068 110.211 227.959 109.555 228.615C108.898 229.271 108.008 229.64 107.08 229.64L79.5698 229.76Z" fill="#EBE6EF"/>
<path d="M214.49 229.87H187.96C187.032 229.87 186.141 229.501 185.485 228.845C184.829 228.189 184.46 227.298 184.46 226.37C184.46 225.442 184.829 224.552 185.485 223.895C186.141 223.239 187.032 222.87 187.96 222.87H214.49C215.418 222.87 216.308 223.239 216.965 223.895C217.621 224.552 217.99 225.442 217.99 226.37C217.99 227.298 217.621 228.189 216.965 228.845C216.308 229.501 215.418 229.87 214.49 229.87Z" fill="#EBE6EF"/>
<path d="M126.38 154H84.05C83.5917 154.001 83.1376 153.912 82.7137 153.738C82.2898 153.564 81.9043 153.308 81.5793 152.985C81.2543 152.662 80.9961 152.278 80.8195 151.855C80.6429 151.432 80.5513 150.978 80.55 150.52L80.38 107.11C80.376 106.65 80.4635 106.193 80.6372 105.767C80.8109 105.34 81.0675 104.953 81.3921 104.626C81.7167 104.3 82.1029 104.041 82.5282 103.865C82.9536 103.689 83.4096 103.599 83.87 103.6L126.28 103.5C127.208 103.5 128.099 103.869 128.755 104.525C129.411 105.182 129.78 106.072 129.78 107L129.87 150.5C129.87 151.428 129.501 152.318 128.845 152.975C128.189 153.631 127.298 154 126.37 154H126.38ZM87.53 147H122.87L122.8 110.51L87.39 110.59L87.53 147Z" fill="#121331"/>
</svg>
