<svg width="25" height="24" viewBox="0 0 25 24" fill="none" xmlns="http://www.w3.org/2000/svg">
<path fill-rule="evenodd" clip-rule="evenodd" d="M14.9199 4.09045L20.5335 9.80163L18.3942 17.5187L10.6414 19.5246L5.02783 13.8134L7.16707 6.09636L14.9199 4.09045ZM13.9196 6.41512L8.78593 7.74337L7.44398 12.5843L12.5521 11.3483L13.9196 6.41512ZM7.26361 13.235L7.29112 13.1357L12.7805 11.8074L12.7974 11.8121L16.6882 15.8943L11.2583 17.2992L7.26361 13.235ZM16.9065 15.3986L18.2977 10.3801L14.4301 6.44527L13.0262 11.5097L13.1172 11.4229L16.9065 15.3986Z" fill="#E0E4E6"/>
<path d="M22.9829 16.6055C23.1117 16.3612 23.018 16.0588 22.7737 15.9301C22.5294 15.8013 22.227 15.895 22.0982 16.1393L19.6941 20.7018L18.7098 19.4984C18.535 19.2846 18.22 19.2531 18.0062 19.4279C17.7925 19.6027 17.7609 19.9177 17.9357 20.1315L19.2509 21.7395C19.3036 21.8038 19.369 21.8517 19.4405 21.8824C19.479 21.9254 19.5258 21.9625 19.5799 21.991C19.8242 22.1197 20.1266 22.026 20.2553 21.7817L22.9829 16.6055Z" fill="#E0E4E6"/>
</svg>
