<svg width="24" height="24" viewBox="0 0 24 24" fill="none" xmlns="http://www.w3.org/2000/svg">
<path fill-rule="evenodd" clip-rule="evenodd" d="M10.557 6.42315L14.8466 5.31329L13.7239 9.36341L9.45563 10.3962L10.557 6.42315ZM9.30277 10.9476L9.27971 11.0308L12.6314 14.4409L17.1242 13.2784L13.8532 9.84654L9.30277 10.9476ZM18.5377 8.63549L17.3778 12.8198L14.2069 9.49286L15.345 5.3872L18.5377 8.63549ZM20.7735 8.05702L15.8029 3L8.93814 4.77615L7.04393 11.6093L12.0145 16.6663L18.8793 14.8902L20.7735 8.05702ZM6.7826 13.4271C6.98606 13.2404 6.99964 12.9241 6.81293 12.7207C6.62622 12.5172 6.30993 12.5036 6.10647 12.6903L3.37922 15.1931C3.17576 15.3798 3.16219 15.6961 3.3489 15.8996C3.53561 16.103 3.8519 16.1166 4.05535 15.9299L6.7826 13.4271ZM11.3618 16.8574C11.555 17.0548 11.5515 17.3714 11.3542 17.5645L8.70859 20.1534C8.51122 20.3466 8.19466 20.3431 8.00152 20.1458C7.80838 19.9484 7.81181 19.6318 8.00917 19.4387L10.6548 16.8498C10.8521 16.6566 11.1687 16.6601 11.3618 16.8574ZM8.34781 16.2081C8.54526 16.0151 8.54881 15.6985 8.35576 15.5011C8.1627 15.3036 7.84614 15.3001 7.64869 15.4931L3.15044 19.8915C2.953 20.0845 2.94944 20.4011 3.1425 20.5985C3.33555 20.796 3.65212 20.7995 3.84956 20.6065L8.34781 16.2081Z" fill="#EDEFF0"/>
</svg>
