<svg width="18" height="18" viewBox="0 0 18 18" fill="none" xmlns="http://www.w3.org/2000/svg">
<mask id="mask0_43_12" style="mask-type:luminance" maskUnits="userSpaceOnUse" x="1" y="1" width="16" height="17">
<path fill-rule="evenodd" clip-rule="evenodd" d="M1.5 1.50049H15.9636V17.0412H1.5V1.50049Z" fill="white" stroke="white" stroke-width="0.09"/>
</mask>
<g mask="url(#mask0_43_12)">
<path fill-rule="evenodd" clip-rule="evenodd" d="M5.4016 13.0804C5.57335 13.0804 5.7451 13.1021 5.9131 13.1471C6.4201 13.2836 6.86035 13.6226 7.12135 14.0779C7.29085 14.3636 7.3846 14.6974 7.3876 15.0379C7.3876 15.5254 7.7791 15.9161 8.2606 15.9161H9.20035C9.6796 15.9161 10.0711 15.5276 10.0733 15.0484C10.0703 14.5189 10.2773 14.0156 10.6561 13.6369C11.0296 13.2634 11.5516 13.0391 12.0736 13.0541C12.4156 13.0624 12.7448 13.1546 13.0351 13.3196C13.4528 13.5589 13.9861 13.4164 14.2276 13.0039L14.7256 12.1736C14.8366 11.9824 14.8688 11.7424 14.8096 11.5211C14.7511 11.2999 14.6041 11.1079 14.4061 10.9946C13.9426 10.7276 13.6118 10.2971 13.4746 9.78112C13.3388 9.27487 13.4131 8.72212 13.6778 8.26687C13.8503 7.96687 14.1031 7.71412 14.4061 7.54012C14.8126 7.30237 14.9551 6.77062 14.7188 6.35662C14.7091 6.34012 14.7001 6.32287 14.6926 6.30487L14.2531 5.54287C14.0138 5.12662 13.4813 4.98337 13.0636 5.22112C12.6121 5.48812 12.0751 5.56462 11.5591 5.42887C11.0438 5.29537 10.6118 4.96912 10.3426 4.50862C10.1701 4.22062 10.0763 3.88537 10.0733 3.54412C10.0801 3.28762 9.9901 3.05737 9.8266 2.88862C9.66385 2.72062 9.4351 2.62537 9.20035 2.62537H8.2606C8.0281 2.62537 7.8106 2.71612 7.64635 2.87962C7.48285 3.04387 7.3936 3.26212 7.3951 3.49462C7.37935 4.59112 6.4831 5.47387 5.39785 5.47387C5.04985 5.47012 4.7146 5.37637 4.4236 5.20237C4.01485 4.96987 3.48085 5.11312 3.2416 5.52937L2.73385 6.36412C2.50135 6.76762 2.64385 7.30087 3.05785 7.54162C3.6721 7.89712 4.05535 8.56012 4.05535 9.27112C4.05535 9.98212 3.6721 10.6444 3.05635 11.0006C2.6446 11.2391 2.5021 11.7694 2.7406 12.1819L3.21385 12.9979C3.33085 13.2086 3.5221 13.3609 3.74335 13.4231C3.96385 13.4846 4.20685 13.4584 4.40935 13.3459C4.7071 13.1711 5.0536 13.0804 5.4016 13.0804M9.20049 17.0412H8.26074C7.15899 17.0412 6.26274 16.1457 6.26274 15.044C6.26124 14.9082 6.22224 14.7672 6.14949 14.645C6.03174 14.4395 5.84124 14.2925 5.62149 14.234C5.40324 14.1755 5.16399 14.2077 4.96749 14.3217C4.49649 14.5842 3.94224 14.648 3.43524 14.5055C2.92899 14.3622 2.49174 14.0142 2.23524 13.553L1.76649 12.7452C1.21824 11.7942 1.54449 10.5755 2.49399 10.0265C2.76324 9.87124 2.93049 9.58174 2.93049 9.27124C2.93049 8.96074 2.76324 8.67049 2.49399 8.51524C1.54374 7.96324 1.21824 6.74149 1.76574 5.79049L2.27424 4.95574C2.81499 4.01524 4.03749 3.68374 4.99074 4.23124C5.12049 4.30849 5.26149 4.34749 5.40474 4.34899C5.87199 4.34899 6.26274 3.96349 6.27024 3.48949C6.26724 2.96674 6.47349 2.46499 6.84924 2.08624C7.22649 1.70824 7.72749 1.50049 8.26074 1.50049H9.20049C9.73749 1.50049 10.2595 1.72099 10.6337 2.10424C11.0072 2.48974 11.2135 3.01849 11.1977 3.55474C11.1992 3.67549 11.239 3.81499 11.311 3.93724C11.4302 4.13974 11.6185 4.28224 11.842 4.34074C12.0655 4.39624 12.2995 4.36624 12.4982 4.24849C13.4582 3.70024 14.68 4.02874 15.2282 4.98124L15.6955 5.79049C15.7075 5.81224 15.718 5.83324 15.727 5.85499C16.2235 6.79324 15.892 7.97449 14.9695 8.51374C14.8352 8.59099 14.7265 8.69899 14.6515 8.82949C14.5352 9.03124 14.503 9.27124 14.5615 9.49174C14.6215 9.71674 14.7647 9.90349 14.9665 10.019C15.4217 10.2807 15.7615 10.7217 15.8972 11.231C16.033 11.7395 15.9587 12.2915 15.694 12.7467L15.196 13.5762C14.6477 14.5182 13.426 14.8445 12.4757 14.2955C12.349 14.2227 12.2027 14.183 12.0572 14.1792H12.0527C11.836 14.1792 11.6132 14.2715 11.4512 14.4327C11.287 14.597 11.197 14.816 11.1985 15.0485C11.1932 16.1502 10.297 17.0412 9.20049 17.0412" fill="#E0E4E6"/>
<path d="M5.9131 13.1471L5.9248 13.1037L5.92474 13.1036L5.9131 13.1471ZM7.12135 14.0779L7.08231 14.1003L7.08265 14.1008L7.12135 14.0779ZM7.3876 15.0379L7.4326 15.0379L7.4326 15.0375L7.3876 15.0379ZM10.0733 15.0484L10.1184 15.0486L10.1183 15.0481L10.0733 15.0484ZM12.0736 13.0541L12.0723 13.0991L12.0725 13.0991L12.0736 13.0541ZM13.0351 13.3196L13.0575 13.2806L13.0573 13.2805L13.0351 13.3196ZM14.2276 13.0039L14.189 12.9807L14.1888 12.9811L14.2276 13.0039ZM14.7256 12.1736L14.7642 12.1968L14.7645 12.1962L14.7256 12.1736ZM14.8096 11.5211L14.7661 11.5326L14.7661 11.5328L14.8096 11.5211ZM14.4061 10.9946L14.3836 11.0336L14.3838 11.0337L14.4061 10.9946ZM13.4746 9.78112L13.5181 9.76955L13.5181 9.76946L13.4746 9.78112ZM13.6778 8.26687L13.7167 8.28949L13.7169 8.2893L13.6778 8.26687ZM14.4061 7.54012L14.4285 7.57914L14.4288 7.57896L14.4061 7.54012ZM14.7188 6.35662L14.7579 6.33431L14.7576 6.33372L14.7188 6.35662ZM14.6926 6.30487L14.7345 6.28742L14.7316 6.28238L14.6926 6.30487ZM14.2531 5.54287L14.2141 5.56529L14.2141 5.56535L14.2531 5.54287ZM13.0636 5.22112L13.0413 5.182L13.0407 5.18238L13.0636 5.22112ZM11.5591 5.42887L11.5705 5.38535L11.5704 5.3853L11.5591 5.42887ZM10.3426 4.50862L10.3814 4.4859L10.3812 4.48549L10.3426 4.50862ZM10.0733 3.54412L10.0283 3.54293L10.0284 3.54451L10.0733 3.54412ZM9.8266 2.88862L9.79428 2.91993L9.79428 2.91993L9.8266 2.88862ZM7.64635 2.87962L7.6146 2.84772L7.61446 2.84787L7.64635 2.87962ZM7.3951 3.49462L7.4401 3.49526L7.4401 3.49433L7.3951 3.49462ZM5.39785 5.47387L5.39736 5.51887H5.39785V5.47387ZM4.4236 5.20237L4.4467 5.16373L4.44585 5.16325L4.4236 5.20237ZM3.2416 5.52937L3.28006 5.55276L3.28061 5.55179L3.2416 5.52937ZM2.73385 6.36412L2.69539 6.34072L2.69486 6.34165L2.73385 6.36412ZM3.05785 7.54162L3.03523 7.58052L3.03531 7.58056L3.05785 7.54162ZM3.05635 11.0006L3.03381 10.9617L3.03379 10.9617L3.05635 11.0006ZM2.7406 12.1819L2.70164 12.2044L2.70167 12.2044L2.7406 12.1819ZM3.21385 12.9979L3.2532 12.976L3.25278 12.9753L3.21385 12.9979ZM3.74335 13.4231L3.73116 13.4664L3.73126 13.4665L3.74335 13.4231ZM4.40935 13.3459L4.43121 13.3852L4.43213 13.3847L4.40935 13.3459ZM6.26274 15.044H6.30774L6.30774 15.0435L6.26274 15.044ZM6.14949 14.645L6.11044 14.6674L6.11082 14.668L6.14949 14.645ZM5.62149 14.234L5.60984 14.2775L5.60991 14.2775L5.62149 14.234ZM4.96749 14.3217L4.9894 14.3611L4.99007 14.3607L4.96749 14.3217ZM3.43524 14.5055L3.42299 14.5488L3.42306 14.5488L3.43524 14.5055ZM2.23524 13.553L2.27457 13.5311L2.27416 13.5304L2.23524 13.553ZM1.76649 12.7452L1.7275 12.7677L1.72757 12.7678L1.76649 12.7452ZM2.49399 10.0265L2.47151 9.9875L2.47147 9.98753L2.49399 10.0265ZM2.49399 8.51524L2.47139 8.55415L2.47151 8.55422L2.49399 8.51524ZM1.76574 5.79049L1.7273 5.76707L1.72674 5.76804L1.76574 5.79049ZM2.27424 4.95574L2.31268 4.97916L2.31325 4.97817L2.27424 4.95574ZM4.99074 4.23124L5.01376 4.19257L5.01315 4.19222L4.99074 4.23124ZM5.40474 4.34899L5.40427 4.39399H5.40474V4.34899ZM6.27024 3.48949L6.31524 3.4902L6.31524 3.48923L6.27024 3.48949ZM6.84924 2.08624L6.81739 2.05445L6.81729 2.05455L6.84924 2.08624ZM10.6337 2.10424L10.6661 2.07293L10.6659 2.0728L10.6337 2.10424ZM11.1977 3.55474L11.1527 3.55342L11.1527 3.5553L11.1977 3.55474ZM11.311 3.93724L11.3498 3.9144L11.3498 3.9144L11.311 3.93724ZM11.842 4.34074L11.8306 4.38428L11.8311 4.38441L11.842 4.34074ZM12.4982 4.24849L12.4759 4.20941L12.4753 4.20977L12.4982 4.24849ZM15.2282 4.98124L15.1892 5.00369L15.1893 5.00374L15.2282 4.98124ZM15.6955 5.79049L15.7349 5.76875L15.7345 5.76799L15.6955 5.79049ZM15.727 5.85499L15.6852 5.87227L15.6872 5.87604L15.727 5.85499ZM14.9695 8.51374L14.9919 8.55274L14.9922 8.55259L14.9695 8.51374ZM14.6515 8.82949L14.6905 8.85196L14.6905 8.85191L14.6515 8.82949ZM14.5615 9.49174L14.518 9.50328L14.518 9.50333L14.5615 9.49174ZM14.9665 10.019L14.9889 9.97998L14.9888 9.97994L14.9665 10.019ZM15.8972 11.231L15.8538 11.2426L15.8538 11.2426L15.8972 11.231ZM15.694 12.7467L15.7326 12.7699L15.7329 12.7694L15.694 12.7467ZM15.196 13.5762L15.1574 13.5531L15.1571 13.5536L15.196 13.5762ZM12.4757 14.2955L12.4983 14.2565L12.4981 14.2565L12.4757 14.2955ZM12.0572 14.1792L12.0584 14.1342H12.0572V14.1792ZM11.4512 14.4327L11.4195 14.4008L11.4194 14.4009L11.4512 14.4327ZM11.1985 15.0485L11.2435 15.0487L11.2435 15.0482L11.1985 15.0485ZM5.4016 13.1254C5.56954 13.1254 5.73737 13.1466 5.90146 13.1906L5.92474 13.1036C5.75283 13.0576 5.57716 13.0354 5.4016 13.0354V13.1254ZM5.9014 13.1906C6.39687 13.324 6.82727 13.6554 7.08231 14.1002L7.16039 14.0555C6.89343 13.5898 6.44333 13.2433 5.9248 13.1037L5.9014 13.1906ZM7.08265 14.1008C7.24807 14.3797 7.33967 14.7057 7.3426 15.0383L7.4326 15.0375C7.42953 14.6891 7.33363 14.3475 7.16005 14.0549L7.08265 14.1008ZM7.3426 15.0379C7.3426 15.5501 7.7541 15.9611 8.2606 15.9611V15.8711C7.8041 15.8711 7.4326 15.5007 7.4326 15.0379H7.3426ZM8.2606 15.9611H9.20035V15.8711H8.2606V15.9611ZM9.20035 15.9611C9.70429 15.9611 10.116 15.5527 10.1183 15.0486L10.0283 15.0482C10.0262 15.5026 9.65491 15.8711 9.20035 15.8711V15.9611ZM10.1183 15.0481C10.1154 14.5307 10.3176 14.039 10.6879 13.6687L10.6243 13.605C10.2371 13.9922 10.0253 14.507 10.0283 15.0486L10.1183 15.0481ZM10.6879 13.6687C11.0534 13.3032 11.5637 13.0845 12.0723 13.0991L12.0749 13.0091C11.5395 12.9937 11.0058 13.2235 10.6243 13.605L10.6879 13.6687ZM12.0725 13.0991C12.4071 13.1072 12.7291 13.1974 13.0129 13.3587L13.0573 13.2805C12.7606 13.1118 12.4241 13.0176 12.0747 13.0091L12.0725 13.0991ZM13.0127 13.3587C13.4518 13.6101 14.0124 13.4605 14.2664 13.0266L14.1888 12.9811C13.9598 13.3723 13.4539 13.5076 13.0575 13.2806L13.0127 13.3587ZM14.2662 13.027L14.7642 12.1968L14.687 12.1505L14.189 12.9807L14.2662 13.027ZM14.7645 12.1962C14.8816 11.9945 14.9154 11.7421 14.8531 11.5095L14.7661 11.5328C14.8223 11.7426 14.7916 11.9703 14.6867 12.151L14.7645 12.1962ZM14.8531 11.5096C14.7915 11.2768 14.637 11.0748 14.4284 10.9556L14.3838 11.0337C14.5712 11.1409 14.7107 11.3229 14.7661 11.5326L14.8531 11.5096ZM14.4286 10.9556C13.9754 10.6946 13.6522 10.2739 13.5181 9.76955L13.4311 9.79268C13.5715 10.3203 13.9098 10.7607 14.3836 11.0336L14.4286 10.9556ZM13.5181 9.76946C13.3854 9.27486 13.458 8.73444 13.7167 8.28949L13.6389 8.24424C13.3682 8.7098 13.2923 9.27488 13.4311 9.79277L13.5181 9.76946ZM13.7169 8.2893C13.8854 7.99623 14.1324 7.74919 14.4285 7.57914L14.3837 7.50109C14.0738 7.67904 13.8153 7.93751 13.6388 8.24443L13.7169 8.2893ZM14.4288 7.57896C14.8568 7.32867 15.0063 6.76958 14.7579 6.33431L14.6798 6.37892C14.9039 6.77165 14.7684 7.27606 14.3834 7.50127L14.4288 7.57896ZM14.7576 6.33372C14.7486 6.31858 14.7407 6.30321 14.7341 6.28756L14.6511 6.32217C14.6595 6.34252 14.6696 6.36166 14.6801 6.37951L14.7576 6.33372ZM14.7316 6.28238L14.2921 5.52038L14.2141 5.56535L14.6536 6.32735L14.7316 6.28238ZM14.2921 5.52044C14.0404 5.08255 13.4805 4.93209 13.0413 5.18201L13.0859 5.26023C13.4822 5.03464 13.9873 5.17068 14.2141 5.56529L14.2921 5.52044ZM13.0407 5.18238C12.5995 5.44326 12.0749 5.51804 11.5705 5.38535L11.5477 5.47239C12.0753 5.61119 12.6246 5.53297 13.0865 5.25985L13.0407 5.18238ZM11.5704 5.3853C11.0667 5.25481 10.6446 4.93605 10.3814 4.4859L10.3038 4.53133C10.5791 5.00218 11.021 5.33593 11.5478 5.47243L11.5704 5.3853ZM10.3812 4.48549C10.2129 4.20446 10.1213 3.87708 10.1183 3.54372L10.0284 3.54451C10.0314 3.89365 10.1273 4.23677 10.304 4.53174L10.3812 4.48549ZM10.1183 3.5453C10.1254 3.27725 10.0312 3.03513 9.85892 2.8573L9.79428 2.91993C9.94899 3.0796 10.0348 3.29798 10.0284 3.54293L10.1183 3.5453ZM9.85892 2.85731C9.68753 2.68039 9.44705 2.58037 9.20035 2.58037V2.67037C9.42315 2.67037 9.64017 2.76084 9.79428 2.91993L9.85892 2.85731ZM9.20035 2.58037H8.2606V2.67037H9.20035V2.58037ZM8.2606 2.58037C8.01609 2.58037 7.78721 2.6759 7.6146 2.84772L7.6781 2.91151C7.83399 2.75633 8.0401 2.67037 8.2606 2.67037V2.58037ZM7.61446 2.84787C7.44247 3.02064 7.34852 3.25043 7.3501 3.49491L7.4401 3.49433C7.43868 3.2738 7.52323 3.06709 7.67824 2.91136L7.61446 2.84787ZM7.3501 3.49397C7.33471 4.56602 6.45835 5.42887 5.39785 5.42887V5.51887C6.50784 5.51887 7.42399 4.61622 7.44009 3.49526L7.3501 3.49397ZM5.39833 5.42887C5.05813 5.4252 4.7307 5.33356 4.44669 5.16374L4.40051 5.24099C4.69849 5.41917 5.04157 5.51503 5.39736 5.51886L5.39833 5.42887ZM4.44585 5.16325C4.01545 4.91844 3.45412 5.06932 3.20258 5.50694L3.28061 5.55179C3.50758 5.15691 4.01424 5.02129 4.40135 5.24148L4.44585 5.16325ZM3.20315 5.50598L2.6954 6.34073L2.7723 6.3875L3.28005 5.55275L3.20315 5.50598ZM2.69486 6.34165C2.44975 6.76703 2.60021 7.32755 3.03523 7.58052L3.08047 7.50272C2.68749 7.27419 2.55295 6.7682 2.77284 6.38658L2.69486 6.34165ZM3.03531 7.58056C3.63568 7.92803 4.01035 8.5762 4.01035 9.27112H4.10035C4.10035 8.54403 3.70852 7.8662 3.08039 7.50267L3.03531 7.58056ZM4.01035 9.27112C4.01035 9.96599 3.63571 10.6134 3.03381 10.9617L3.07888 11.0396C3.70848 10.6753 4.10035 9.99824 4.10035 9.27112H4.01035ZM3.03379 10.9617C2.60061 11.2126 2.45067 11.7703 2.70164 12.2044L2.77956 12.1593C2.55352 11.7684 2.68859 11.2656 3.0789 11.0396L3.03379 10.9617ZM2.70167 12.2044L3.17492 13.0204L3.25278 12.9753L2.77953 12.1593L2.70167 12.2044ZM3.17451 13.0197C3.29713 13.2406 3.49796 13.4008 3.73116 13.4664L3.75554 13.3798C3.54624 13.3209 3.36457 13.1766 3.25319 12.976L3.17451 13.0197ZM3.73126 13.4665C3.9629 13.5311 4.21812 13.5036 4.4312 13.3852L4.3875 13.3065C4.19558 13.4131 3.9648 13.4382 3.75544 13.3798L3.73126 13.4665ZM4.43213 13.3847C4.72269 13.2141 5.06128 13.1254 5.4016 13.1254V13.0354C5.04592 13.0354 4.69151 13.1281 4.38657 13.3071L4.43213 13.3847ZM9.20049 16.9962H8.26074V17.0862H9.20049V16.9962ZM8.26074 16.9962C7.18382 16.9962 6.30774 16.1209 6.30774 15.044H6.21774C6.21774 16.1706 7.13416 17.0862 8.26074 17.0862V16.9962ZM6.30774 15.0435C6.30615 14.8998 6.26494 14.751 6.18816 14.622L6.11082 14.668C6.17954 14.7835 6.21633 14.9167 6.21774 15.0445L6.30774 15.0435ZM6.18853 14.6226C6.06498 14.407 5.86473 14.2522 5.63307 14.1905L5.60991 14.2775C5.81774 14.3328 5.9985 14.472 6.11045 14.6674L6.18853 14.6226ZM5.63314 14.1905C5.40323 14.1289 5.15167 14.1629 4.94491 14.2828L4.99007 14.3607C5.17631 14.2526 5.40325 14.2221 5.60984 14.2775L5.63314 14.1905ZM4.94558 14.2824C4.48492 14.5392 3.94292 14.6014 3.44742 14.4622L3.42306 14.5488C3.94156 14.6945 4.50806 14.6293 4.9894 14.361L4.94558 14.2824ZM3.44749 14.4622C2.95287 14.3222 2.52531 13.982 2.27457 13.5311L2.19591 13.5749C2.45817 14.0465 2.90511 14.4022 3.42299 14.5488L3.44749 14.4622ZM2.27416 13.5304L1.80541 12.7227L1.72757 12.7678L2.19632 13.5756L2.27416 13.5304ZM1.80548 12.7228C1.26961 11.7933 1.58853 10.602 2.51651 10.0654L2.47147 9.98753C1.50045 10.549 1.16687 11.7952 1.7275 12.7677L1.80548 12.7228ZM2.51647 10.0655C2.79965 9.90219 2.97549 9.59783 2.97549 9.27124H2.88549C2.88549 9.56564 2.72683 9.84029 2.47151 9.9875L2.51647 10.0655ZM2.97549 9.27124C2.97549 8.94469 2.79968 8.63956 2.51647 8.47625L2.47151 8.55422C2.7268 8.70142 2.88549 8.97679 2.88549 9.27124H2.97549ZM2.51659 8.47633C1.58779 7.93678 1.2696 6.74247 1.80474 5.81294L1.72674 5.76804C1.16688 6.7405 1.49969 7.98969 2.47139 8.55415L2.51659 8.47633ZM1.80417 5.8139L2.31267 4.97915L2.23581 4.93233L1.72731 5.76708L1.80417 5.8139ZM2.31325 4.97817C2.84154 4.05935 4.03648 3.73505 4.96833 4.27026L5.01315 4.19222C4.0385 3.63242 2.78844 3.97113 2.23523 4.93331L2.31325 4.97817ZM4.96772 4.2699C5.10421 4.35117 5.25298 4.3924 5.40427 4.39399L5.40521 4.30399C5.27 4.30257 5.13677 4.26581 5.01376 4.19257L4.96772 4.2699ZM5.40474 4.39399C5.89685 4.39399 6.30735 3.98848 6.31523 3.4902L6.22525 3.48878C6.21813 3.93849 5.84713 4.30399 5.40474 4.30399V4.39399ZM6.31524 3.48923C6.31231 2.97865 6.51372 2.48833 6.88119 2.11793L6.81729 2.05455C6.43326 2.44164 6.22217 2.95483 6.22524 3.48975L6.31524 3.48923ZM6.88109 2.11803C7.2499 1.74848 7.73945 1.54549 8.26074 1.54549V1.45549C7.71553 1.45549 7.20308 1.668 6.81739 2.05445L6.88109 2.11803ZM8.26074 1.54549H9.20049V1.45549H8.26074V1.54549ZM9.20049 1.54549C9.72535 1.54549 10.2357 1.76108 10.6015 2.13568L10.6659 2.0728C10.2832 1.68089 9.74963 1.45549 9.20049 1.45549V1.54549ZM10.6014 2.13555C10.9665 2.51238 11.1682 3.02937 11.1528 3.55342L11.2427 3.55606C11.2588 3.0076 11.048 2.4671 10.6661 2.07293L10.6014 2.13555ZM11.1527 3.5553C11.1544 3.68466 11.1966 3.83177 11.2722 3.96008L11.3498 3.9144C11.2813 3.79821 11.2441 3.66631 11.2427 3.55418L11.1527 3.5553ZM11.2722 3.96007C11.3974 4.17271 11.5955 4.32273 11.8306 4.38427L11.8534 4.2972C11.6415 4.24175 11.463 4.10677 11.3498 3.9144L11.2722 3.96007ZM11.8311 4.38441C12.0655 4.44261 12.3117 4.41128 12.5212 4.2872L12.4753 4.20977C12.2872 4.32119 12.0654 4.34986 11.8528 4.29706L11.8311 4.38441ZM12.5206 4.28756C13.4592 3.75151 14.6535 4.07285 15.1892 5.00369L15.2672 4.95879C14.7065 3.98462 13.4573 3.64897 12.4759 4.20941L12.5206 4.28756ZM15.1893 5.00374L15.6565 5.81299L15.7345 5.76799L15.2672 4.95874L15.1893 5.00374ZM15.6561 5.81223C15.6675 5.83298 15.6772 5.85242 15.6854 5.87219L15.7686 5.83778C15.7588 5.81405 15.7474 5.7915 15.7349 5.76875L15.6561 5.81223ZM15.6872 5.87604C16.1725 6.79306 15.8484 7.94786 14.9468 8.47489L14.9922 8.55259C15.9356 8.00112 16.2745 6.79341 15.7668 5.83394L15.6872 5.87604ZM14.947 8.47473C14.8061 8.55583 14.6916 8.66947 14.6125 8.80707L14.6905 8.85191C14.7614 8.72851 14.8644 8.62614 14.9919 8.55274L14.947 8.47473ZM14.6125 8.80702C14.4904 9.0189 14.4564 9.27111 14.518 9.50328L14.605 9.4802C14.5496 9.27137 14.5801 9.04358 14.6905 8.85196L14.6125 8.80702ZM14.518 9.50333C14.5811 9.73988 14.7319 9.93655 14.9441 10.058L14.9888 9.97994C14.7976 9.87043 14.6619 9.69359 14.605 9.48014L14.518 9.50333ZM14.9441 10.058C15.389 10.3138 15.7211 10.7449 15.8538 11.2426L15.9407 11.2194C15.8019 10.6985 15.4545 10.2477 14.9889 9.97998L14.9441 10.058ZM15.8538 11.2426C15.9864 11.7395 15.9138 12.2792 15.6551 12.7241L15.7329 12.7694C16.0036 12.3038 16.0796 11.7395 15.9407 11.2194L15.8538 11.2426ZM15.6554 12.7236L15.1574 13.5531L15.2346 13.5994L15.7326 12.7699L15.6554 12.7236ZM15.1571 13.5536C14.6213 14.4741 13.4271 14.7931 12.4983 14.2565L12.4532 14.3345C13.4249 14.8958 14.6741 14.5624 15.2349 13.5989L15.1571 13.5536ZM12.4981 14.2565C12.3647 14.1799 12.2111 14.1382 12.0584 14.1343L12.0561 14.2242C12.1944 14.2278 12.3333 14.2656 12.4533 14.3345L12.4981 14.2565ZM12.0572 14.1342H12.0527V14.2242H12.0572V14.1342ZM12.0527 14.1342C11.8237 14.1342 11.5897 14.2315 11.4195 14.4008L11.483 14.4646C11.6368 14.3115 11.8483 14.2242 12.0527 14.2242V14.1342ZM11.4194 14.4009C11.2467 14.5737 11.1519 14.8042 11.1535 15.0488L11.2435 15.0482C11.2421 14.8277 11.3273 14.6203 11.4831 14.4646L11.4194 14.4009ZM11.1535 15.0483C11.1484 16.1253 10.2722 16.9962 9.20049 16.9962V17.0862C10.3218 17.0862 11.2381 16.1752 11.2435 15.0487L11.1535 15.0483Z" fill="#E0E4E6"/>
</g>
<path fill-rule="evenodd" clip-rule="evenodd" d="M8.73396 7.85596C7.95396 7.85596 7.31946 8.49121 7.31946 9.27121C7.31946 10.0512 7.95396 10.685 8.73396 10.685C9.51396 10.685 10.1485 10.0512 10.1485 9.27121C10.1485 8.49121 9.51396 7.85596 8.73396 7.85596M8.73384 11.81C7.33359 11.81 6.19434 10.6715 6.19434 9.27121C6.19434 7.87096 7.33359 6.73096 8.73384 6.73096C10.1341 6.73096 11.2733 7.87096 11.2733 9.27121C11.2733 10.6715 10.1341 11.81 8.73384 11.81" fill="#E0E4E6"/>
<path d="M8.73396 7.81096C7.92907 7.81096 7.27446 8.46639 7.27446 9.27121H7.36446C7.36446 8.51603 7.97884 7.90096 8.73396 7.90096V7.81096ZM7.27446 9.27121C7.27446 10.0761 7.92914 10.73 8.73396 10.73V10.64C7.97878 10.64 7.36446 10.0263 7.36446 9.27121H7.27446ZM8.73396 10.73C9.53878 10.73 10.1935 10.0761 10.1935 9.27121H10.1035C10.1035 10.0263 9.48914 10.64 8.73396 10.64V10.73ZM10.1935 9.27121C10.1935 8.46639 9.53884 7.81096 8.73396 7.81096V7.90096C9.48907 7.90096 10.1035 8.51603 10.1035 9.27121H10.1935ZM8.73384 11.765C7.35842 11.765 6.23934 10.6466 6.23934 9.27121H6.14934C6.14934 10.6963 7.30875 11.855 8.73384 11.855V11.765ZM6.23934 9.27121C6.23934 7.89579 7.35846 6.77596 8.73384 6.77596V6.68596C7.30872 6.68596 6.14934 7.84612 6.14934 9.27121H6.23934ZM8.73384 6.77596C10.1092 6.77596 11.2283 7.89579 11.2283 9.27121H11.3183C11.3183 7.84612 10.159 6.68596 8.73384 6.68596V6.77596ZM11.2283 9.27121C11.2283 10.6466 10.1093 11.765 8.73384 11.765V11.855C10.1589 11.855 11.3183 10.6963 11.3183 9.27121H11.2283Z" fill="#E0E4E6"/>
</svg>
